inDegrees=no
num_controls=7
num_derivatives=13
num_iterations=105
num_multipliers=7
num_parameters=0
num_slacks=7
num_states=26
objective=4.853259
objective_accelerations=0.363672
objective_balance=0.013309
objective_effort=0.162915
objective_height=4.205098
objective_ligament=0.108264
solver_duration=1195.718939
status=Solve_Succeeded
success=true
DataType=double
version=3
OpenSimVersion=4.4-2022-07-23-0e9fedc
endheader
time	/jointset/ground_pelvis/pelvis_tilt/value	/jointset/ground_pelvis/pelvis_tx/value	/jointset/ground_pelvis/pelvis_ty/value	/jointset/hip_l/hip_flexion_l/value	/jointset/hip_l/hip_adduction_l/value	/jointset/hip_l/hip_rotation_l/value	/jointset/back/lumbar_extension/value	/jointset/patellofemoral_l/patellar_flexion_l/value	/jointset/knee_l/knee_flexion_l/value	/jointset/knee_l/knee_adduction_l/value	/jointset/knee_l/knee_rotation_l/value	/jointset/ankle_l/ankle_angle_l/value	/jointset/subtalar_l/subtalar_angle_l/value	/jointset/ground_pelvis/pelvis_tilt/speed	/jointset/ground_pelvis/pelvis_tx/speed	/jointset/ground_pelvis/pelvis_ty/speed	/jointset/hip_l/hip_flexion_l/speed	/jointset/hip_l/hip_adduction_l/speed	/jointset/hip_l/hip_rotation_l/speed	/jointset/back/lumbar_extension/speed	/jointset/patellofemoral_l/patellar_flexion_l/speed	/jointset/knee_l/knee_flexion_l/speed	/jointset/knee_l/knee_adduction_l/speed	/jointset/knee_l/knee_rotation_l/speed	/jointset/ankle_l/ankle_angle_l/speed	/jointset/subtalar_l/subtalar_angle_l/speed	/forceset/tau_hip_flexion_l	/forceset/tau_hip_adduction_l	/forceset/tau_hip_rotation_l	/forceset/tau_knee_flexion_l	/forceset/tau_ankle_angle_l	/forceset/tau_subtalar_angle_l	/forceset/tau_lumbar_extension	lambda_cid13_p0	lambda_cid13_p1	lambda_cid13_p2	lambda_cid13_p3	lambda_cid13_p4	lambda_cid13_p5	lambda_cid14_p0	/jointset/ground_pelvis/pelvis_tilt/accel	/jointset/ground_pelvis/pelvis_tx/accel	/jointset/ground_pelvis/pelvis_ty/accel	/jointset/hip_l/hip_flexion_l/accel	/jointset/hip_l/hip_adduction_l/accel	/jointset/hip_l/hip_rotation_l/accel	/jointset/back/lumbar_extension/accel	/jointset/patellofemoral_l/patellar_flexion_l/accel	/jointset/knee_l/knee_flexion_l/accel	/jointset/knee_l/knee_adduction_l/accel	/jointset/knee_l/knee_rotation_l/accel	/jointset/ankle_l/ankle_angle_l/accel	/jointset/subtalar_l/subtalar_angle_l/accel	gamma_cid13_p0	gamma_cid13_p1	gamma_cid13_p2	gamma_cid13_p3	gamma_cid13_p4	gamma_cid13_p5	gamma_cid14_p0
0.5	-0.3454014225139687	-0.02260668686619609	0.8241596094997509	0.9242448422646358	-0.3552018445489288	-0.1281591038352795	-0.4018783515781453	0.5192782406687653	0.5192782406687654	-0.08241662265244233	-0.1743292987453844	0.03000589601365365	0.07568199260833694	-1.126749510476174	-0.3135095214886094	-0.2940367145318652	2.157744455671212	0.03178893418102662	0.266770018143655	-0.2984379781018303	0.8117234087529871	0.8117234087528854	0.183016140739843	0.0004826709183250149	-0.1507534752485992	-0.01448038223572038	-0.1451972001729756	0.001741807062635853	0.009982362830290916	-0.1150913593734397	0.06738087919495192	0.0007249366360450839	0.1394928873927488	-3.926439778669554	-1.344780745107192	1.895104946300192	-6.0809347000427	-445.5871534097875	-68.10125967919474	-21.74078012534975	0.2641438692207478	0.5111559724874367	-0.1638800091725549	-1.382232884137907	-0.01093571644498483	-0.3245832206527822	1.405295420264708	-0.738172991029328	-0.7381729910293243	-0.3177745519063981	0.02619912796790717	0.2815770859216714	0.07510542565856751	-3.330382634670083e-08	-3.393840859276366e-07	1.62897905467787e-07	-6.415739484139851e-08	-1.937988379740044e-07	8.037088620258937e-08	-9.051967804782962e-08
0.51	-0.3566536443667392	-0.02571576004657757	0.8212117526229517	0.9457492851084529	-0.3548853749353672	-0.1255086785744843	-0.4047930533869455	0.5273572089076458	0.5273572089079737	-0.08060387696184418	-0.1743244045712072	0.02851245820428839	0.07554005525408949	-1.123547265739464	-0.308263894063309	-0.2954686570736804	2.142853843446165	0.03149692000614832	0.2632880713083644	-0.2844961558697061	0.8039610087712531	0.8039610087711591	0.1795129298572961	0.0004928018459007947	-0.1479070896614767	-0.01390726973166394	-0.1508871547861392	0.002749720994152268	0.009826944311875297	-0.1141853936673416	0.06775927272143736	0.001762814194350685	0.1434133809243241	-3.849485326839616	-1.743603883655913	1.883984297058453	-6.367413829095254	-447.7148893335097	-68.24308532716975	-21.49940812961674	0.3703918810073437	0.5374367521956659	-0.1229881086885474	-1.586030750290465	-0.03949463852406037	-0.3641090919267075	1.389559791752604	-0.811640456322228	-0.8116404563212907	-0.3696631848608981	-0.01203783963058555	0.2902080949466204	0.04841869278355347	-3.168332068226518e-08	-3.077322418274047e-07	1.648981006579914e-07	-5.987464126057412e-08	-1.807524566388962e-07	8.274491358528642e-08	-8.572691999144684e-08
0.52	-0.3678694183511265	-0.02877114282777928	0.8182515489743328	0.967096110758351	-0.3545720575376494	-0.1228938945173853	-0.4075681501399907	0.5353552797561274	0.5353552797561839	-0.07882677714680929	-0.1743195006700753	0.02704829201076901	0.07540384993088357	-1.119459936798309	-0.3027714416526573	-0.2965060688955115	2.126221016876974	0.0311584910105933	0.2596417773947547	-0.2705169669548582	0.7955439306064634	0.795543930606377	0.1758869658375097	0.000484616182130408	-0.1448991520807818	-0.01333397602742452	-0.1565771093986141	0.003757634926002883	0.00967152578933889	-0.113279427960866	0.06813766624805431	0.002800691753088073	0.1473338744564552	-3.774915489568386	-2.14260376424506	1.873570638684604	-6.663763008694672	-449.8904823678213	-68.4197270677025	-21.25371801212721	0.441160710109934	0.5605209695574339	-0.08497386517581217	-1.730675752966452	-0.02021868058032871	-0.3574526363166711	1.412768756809431	-0.8691086276402812	-0.8691086276402812	-0.3423251793540081	0.02253580969866931	0.3138874846359337	0.07514166569522271	-3.054435213615608e-08	-2.786032919333661e-07	1.673015586065404e-07	-5.504151046986152e-08	-1.691907369646281e-07	8.425822795413614e-08	-8.125883429214139e-08
0.53	-0.3790400035903365	-0.03177041732598866	0.8152829487722422	0.9882681482334497	-0.354262300637135	-0.1203162147348415	-0.4102032684830911	0.5432660066291816	0.5432660066297625	-0.07708645385200877	-0.1743146076316983	0.02561501862544265	0.07527343776856991	-1.114511653929192	-0.297046495511371	-0.2971463967730845	2.107906208379611	0.03078761048377741	0.2558654517814871	-0.2565093827767327	0.7864973219101635	0.7864973219101281	0.1721663708536865	0.000489293124803216	-0.1417297637721821	-0.01274607710700846	-0.1622293041817469	0.004695258254824722	0.009504057610985602	-0.1123747109750293	0.06848502915715823	0.003767794458387414	0.1511901821365998	-3.716673345865296	-2.509706461071639	1.860012574924419	-6.925190463234386	-452.0861453326165	-68.55075254180259	-21.00425148776357	0.5434696167345633	0.5840153068339946	-0.04345866037793675	-1.92393747235057	-0.04627620047865258	-0.3920910090701886	1.394351080534428	-0.9380395300348313	-0.9380395300274482	-0.3886725106661084	-0.01122601673073848	0.3223201081375834	0.05099269469362713	-2.950662418045322e-08	-2.505232167608607e-07	1.690839127213233e-07	-5.000061015864725e-08	-1.577799798941055e-07	8.493206360384506e-08	-7.67653229406705e-08
0.54	-0.3901567444925745	-0.03471133558870367	0.8123099660091088	1.009248626808766	-0.3539564032342421	-0.1177771719053795	-0.4126983914179487	0.5510831469079428	0.5510831469080516	-0.07538368567931862	-0.1743097997535187	0.02421421024404444	0.07514898033335626	-1.108691069403247	-0.29110019455378	-0.2973825811037868	2.087909236912969	0.03038659148697769	0.2519143867587801	-0.2425178853097223	0.776826611637483	0.7768266116374988	0.168375941759145	0.0004675839361364043	-0.1384061512969453	-0.01214303060742564	-0.1678814989642909	0.005632881584170083	0.009336589425664028	-0.1114699939886584	0.06883239206649716	0.004734897164376431	0.1550464898171335	-3.660797908727473	-2.877222215905069	1.847465522961859	-7.198778612878285	-454.331472174803	-68.71643780630117	-20.7517093332458	0.6156210414757165	0.6047919328180954	-0.004145155801743718	-2.067108346822208	-0.02624637457716245	-0.3924005182046798	1.409551414586368	-0.9939289429161572	-0.9939289429161733	-0.3562920014973682	0.01725858343069035	0.3447323179631456	0.0781711815286366	-2.85809070907317e-08	-2.236035987270729e-07	1.701790881264072e-07	-4.47298371864524e-08	-1.465362452787907e-07	8.467711428769609e-08	-7.224368108042079e-08
0.55	-0.4012110296414774	-0.03759172584939786	0.8093366431911311	1.030020952487585	-0.3536546205669635	-0.1152783169466907	-0.4150536694433237	0.5588005394212485	0.5588005394215644	-0.07371911286500288	-0.1743051612425477	0.02284741252047535	0.07503067705337747	-1.102022115739704	-0.2849442152681973	-0.297213194218361	2.066282980861692	0.02996528146408007	0.2478290652942472	-0.2285490904700025	0.7665516535246176	0.766551653524693	0.1645301653970178	0.0004558207209744733	-0.134928831832037	-0.01151497150401914	-0.1734686012261172	0.006499150569988788	0.009159826329924748	-0.1105905122484476	0.06918825422701548	0.005620077288128985	0.1588219242785015	-3.60784687076501	-3.20957850245267	1.830377133668712	-7.450317100220978	-456.5768684497268	-68.83011803017432	-20.49675779232319	0.7140993896639031	0.6260389023296803	0.03777077087751971	-2.251334069737241	-0.05074478471624078	-0.4207829128291903	1.388837912081898	-1.059300918903231	-1.059300918894566	-0.400025866807897	-0.01099506758620113	0.3529093216205634	0.05553427290196482	-2.775595242333922e-08	-1.987343500375147e-07	1.699723006102788e-07	-3.954182689115756e-08	-1.351086839359997e-07	8.392724296847091e-08	-6.784332644967428e-08
0.5600000000000001	-0.4121943118815735	-0.04040954872205822	0.8063670722740389	1.050568825638822	-0.3533571852936462	-0.1128211521929868	-0.4172696006416034	0.5664121780190521	0.5664121780189887	-0.07209325889803962	-0.1743007606218465	0.02151612350373869	0.07491873656406374	-1.094490487641379	-0.278586716947011	-0.2966322009263763	2.043018731392053	0.02951711269826562	0.2435763457397169	-0.2146485198935252	0.755675828474508	0.7556758284746433	0.1606321725054376	0.0004200057619276042	-0.1313044099324799	-0.01087047247438865	-0.1790557034875457	0.007365419556299612	0.008983063229914889	-0.1097110305078944	0.06954411638773808	0.006505257412498457	0.1625973587400957	-3.557225950228955	-3.542568117813836	1.814579157434314	-7.716589523741419	-458.8736619016964	-68.97783472850273	-20.24007925786823	0.7881559284320397	0.6450957399385882	0.07817612550993212	-2.394707030494633	-0.03161812316052327	-0.4258801362043749	1.395906561937852	-1.114102330364738	-1.11410233036473	-0.3667353073876685	0.01244823465357424	0.3741528048927292	0.08145916677348576	-2.705191266274158e-08	-1.76325544561032e-07	1.682031575886953e-07	-3.445313180814274e-08	-1.234605305202374e-07	8.258346524555429e-08	-6.358851649433157e-08
0.5700000000000001	-0.4230980663247454	-0.04316284032680722	0.8034053628578605	1.070876093546337	-0.3530643184044443	-0.1104072269401895	-0.4193468833669793	0.5739121304362622	0.5739121304362383	-0.07050656427951971	-0.1742967199786891	0.0202217993005556	0.07481336797937989	-1.086116375387953	-0.2720421217702658	-0.295640372900443	2.018168587113153	0.02905136620496456	0.2391785605806334	-0.200831670295593	0.744218265203098	0.7442182652032243	0.1567010269828869	0.0003803262670175922	-0.1275387624414088	-0.01020164464176765	-0.1845634246663171	0.008166394270246173	0.008800956136796521	-0.1088168871101409	0.06983036394575623	0.007321351254128139	0.166275380664424	-3.53239653456087	-3.844175152061486	1.797361704315467	-7.934395504031549	-461.1338551468834	-69.07514857192662	-19.98232040676936	0.8836341233343566	0.6635574259424925	0.1200591779570097	-2.570118148480213	-0.05476875435138522	-0.4512976615086463	1.371027391114318	-1.176029552106658	-1.176029552108311	-0.4071912526710608	-0.01330479894700185	0.3810156772890494	0.05984075075050727	-2.633454398266621e-08	-1.541607246660323e-07	1.660501384812927e-07	-2.931546423635213e-08	-1.113715105353394e-07	8.082618385076499e-08	-5.928786940011869e-08
0.58	-0.4339137605954772	-0.04584980277591048	0.8004556463293042	1.090926870006635	-0.3527762521485945	-0.1080381935301181	-0.421286706949895	0.5812946179753686	0.5812946179755388	-0.06895935853154832	-0.1742933018821312	0.01896578056350593	0.07471473690487071	-1.07687845315304	-0.2653208858178618	-0.2942336234016541	1.991720441958517	0.02855698603422371	0.2345979771916155	-0.1871566914018517	0.7321828528685976	0.7321828528687152	0.152734398341018	0.0002954964767762842	-0.1236433167073391	-0.009522970439386718	-0.1900711458455096	0.008967368984123413	0.008618849044756993	-0.1079227437124517	0.07011661150379545	0.008137445095681272	0.1699534025883425	-3.509884354614347	-4.146606677751906	1.781680919970113	-8.169487834674426	-463.4475964223309	-69.20556750378265	-19.72414191428389	0.9609179247292235	0.6804238950701683	0.1611604200809904	-2.714307205641195	-0.03734485864833011	-0.4624397821914628	1.367532421099575	-1.229672142982603	-1.229672142982544	-0.3738319312510183	0.003418175587128626	0.4001124534923102	0.08342844072550289	-2.559981670978263e-08	-1.323136534352895e-07	1.633971877272418e-07	-2.411401853964428e-08	-9.870833873947429e-08	7.853038604609496e-08	-5.492752742737724e-08
